<svg width="779" height="775" viewBox="0 0 779 775" fill="none" xmlns="http://www.w3.org/2000/svg">
<path d="M768.77 764.329L10.3145 10.2549C6.51783 6.48018 9.19102 0 14.5448 0H259.008C260.603 0 262.133 0.635284 263.259 1.76545L513.249 252.71C517.026 256.501 523.5 253.827 523.5 248.476V6C523.5 2.68629 526.186 0 529.5 0H773C776.314 0 779 2.68629 779 6V760.074C779 765.411 772.554 768.092 768.77 764.329Z" fill="white"/>
<path d="M509.456 775H6C2.68629 775 0 772.314 0 769V268.427C0 263.09 6.44573 260.409 10.2305 264.172L513.686 764.745C517.483 768.52 514.809 775 509.456 775Z" fill="#FF004D"/>
</svg>
