<svg width="831" height="827" viewBox="0 0 831 827" fill="none" xmlns="http://www.w3.org/2000/svg">
<rect width="831" height="827" rx="20" fill="#323338"/>
<path d="M794.77 790.329L36.3145 36.2549C32.5178 32.4802 35.191 26 40.5448 26H285.008C286.603 26 288.133 26.6353 289.259 27.7654L539.249 278.71C543.026 282.501 549.5 279.827 549.5 274.476V32C549.5 28.6863 552.186 26 555.5 26H799C802.314 26 805 28.6863 805 32V786.074C805 791.411 798.554 794.092 794.77 790.329Z" fill="white"/>
<path d="M535.456 801H32C28.6863 801 26 798.314 26 795V294.427C26 289.09 32.4457 286.409 36.2305 290.172L539.686 790.745C543.483 794.52 540.809 801 535.456 801Z" fill="#FF004D"/>
</svg>
